<svg width="13" height="13" viewBox="0 0 13 13" fill="none" xmlns="http://www.w3.org/2000/svg">
<path d="M6.00146 12.0274C4.36146 12.0274 4.16813 12.0187 3.52813 11.9907C3.02904 11.9744 2.53642 11.8729 2.07146 11.6907C1.67358 11.5359 1.31225 11.3 1.01041 10.9981C0.708571 10.6961 0.472821 10.3347 0.318131 9.93675C0.143002 9.47011 0.0485434 8.97708 0.0387982 8.47875C0.00146484 7.84008 0.00146484 7.63075 0.00146484 6.00342C0.00146484 4.35875 0.0101315 4.16675 0.0387982 3.53008C0.0487566 3.03243 0.143212 2.54009 0.318131 2.07408C0.472643 1.67564 0.708553 1.3138 1.01079 1.01168C1.31303 0.70955 1.67496 0.473778 2.07346 0.319418C2.53923 0.143553 3.0317 0.0488474 3.52946 0.0394179C4.16613 0.0034179 4.37546 0.00341797 6.00146 0.00341797C7.6548 0.00341797 7.8448 0.0120846 8.4748 0.0394179C8.97346 0.0487512 9.46813 0.143418 9.9348 0.319418C10.3332 0.473957 10.695 0.709792 10.9972 1.0119C11.2995 1.314 11.5354 1.67575 11.6901 2.07408C11.8681 2.54742 11.9635 3.04742 11.9708 3.55208C12.0081 4.19075 12.0081 4.39942 12.0081 6.02608C12.0081 7.65275 11.9988 7.86608 11.9708 8.49742C11.9608 8.99621 11.8662 9.48969 11.6908 9.95675C11.5357 10.355 11.2995 10.7166 10.9972 11.0187C10.6949 11.3207 10.3331 11.5566 9.9348 11.7114C9.46813 11.8861 8.97546 11.9807 8.47746 11.9907C7.8408 12.0274 7.63213 12.0274 6.00146 12.0274V12.0274ZM5.9788 1.05875C4.34813 1.05875 4.1788 1.06675 3.54213 1.09542C3.1619 1.10039 2.78533 1.17052 2.4288 1.30275C2.16875 1.40243 1.93248 1.55549 1.73521 1.75207C1.53794 1.94865 1.38405 2.18439 1.28346 2.44408C1.15013 2.80408 1.08013 3.18475 1.07613 3.56875C1.0408 4.21475 1.0408 4.38408 1.0408 6.00342C1.0408 7.60342 1.0468 7.79742 1.07613 8.43942C1.08213 8.81942 1.15213 9.19608 1.28346 9.55275C1.48746 10.0774 1.90346 10.4921 2.42946 10.6934C2.78554 10.8265 3.16203 10.8966 3.54213 10.9008C4.18746 10.9381 4.35747 10.9381 5.9788 10.9381C7.61413 10.9381 7.78346 10.9301 8.4148 10.9008C8.79507 10.8961 9.1717 10.826 9.52813 10.6934C9.78679 10.593 10.0217 10.4398 10.218 10.2437C10.4142 10.0475 10.5675 9.81268 10.6681 9.55408C10.8015 9.19408 10.8715 8.81275 10.8755 8.42875H10.8828C10.9115 7.79142 10.9115 7.62142 10.9115 5.99275C10.9115 4.36408 10.9041 4.19275 10.8755 3.55608C10.8694 3.17639 10.7993 2.80044 10.6681 2.44408C10.5678 2.18512 10.4146 1.94989 10.2183 1.75338C10.022 1.55688 9.78698 1.40341 9.52813 1.30275C9.17178 1.16987 8.7951 1.09973 8.4148 1.09542C7.77013 1.05875 7.60146 1.05875 5.9788 1.05875V1.05875ZM6.00146 9.08275C5.39185 9.08315 4.7958 8.90274 4.28872 8.56436C3.78164 8.22597 3.3863 7.74481 3.15271 7.18172C2.91911 6.61863 2.85775 5.99892 2.97639 5.40095C3.09503 4.80299 3.38834 4.25364 3.81922 3.82239C4.2501 3.39114 4.79919 3.09736 5.39705 2.9782C5.99491 2.85904 6.61468 2.91986 7.17797 3.15297C7.74126 3.38608 8.22277 3.781 8.56159 4.28779C8.90041 4.79458 9.08133 5.39047 9.08146 6.00008C9.08041 6.81687 8.75565 7.59994 8.17835 8.17775C7.60104 8.75556 6.81825 9.08099 6.00146 9.08275V9.08275ZM6.00146 3.99875C5.6059 3.99875 5.21922 4.11605 4.89032 4.33581C4.56143 4.55557 4.30508 4.86793 4.15371 5.23338C4.00233 5.59884 3.96272 6.00097 4.03989 6.38893C4.11706 6.77689 4.30755 7.13326 4.58725 7.41296C4.86696 7.69267 5.22332 7.88315 5.61128 7.96032C5.99925 8.03749 6.40138 7.99789 6.76683 7.84651C7.13228 7.69513 7.44464 7.43879 7.6644 7.10989C7.88417 6.78099 8.00146 6.39431 8.00146 5.99875C8.00023 5.4687 7.78912 4.9607 7.41432 4.5859C7.03951 4.21109 6.53152 3.99998 6.00146 3.99875ZM9.20146 3.52342C9.10709 3.52307 9.0137 3.50413 8.92665 3.46769C8.83959 3.43125 8.76056 3.37802 8.69407 3.31104C8.5598 3.17576 8.48476 2.99269 8.48546 2.80208C8.48617 2.61148 8.56257 2.42897 8.69784 2.29469C8.83312 2.16042 9.0162 2.08538 9.2068 2.08608C9.3974 2.08679 9.57991 2.16319 9.71419 2.29846C9.84847 2.43374 9.92351 2.61682 9.9228 2.80742C9.92209 2.99802 9.8457 3.18053 9.71042 3.31481C9.57514 3.44909 9.39207 3.52412 9.20146 3.52342Z" fill="white"/>
</svg>
