<svg width="19" height="21" viewBox="0 0 19 21" fill="none" xmlns="http://www.w3.org/2000/svg">
<g filter="url(#filter0_d_478_1024)">
<path fill-rule="evenodd" clip-rule="evenodd" d="M9.13872 3.70007C9.39072 3.75936 9.54694 4.01172 9.48765 4.26372L7.61264 12.2325C7.55335 12.4845 7.301 12.6407 7.04899 12.5814C6.79699 12.5221 6.64077 12.2697 6.70007 12.0177L8.57507 4.04899C8.63436 3.79699 8.88672 3.64077 9.13872 3.70007Z" fill="white"/>
<path fill-rule="evenodd" clip-rule="evenodd" d="M10.2165 1.41236C9.56749 1.30052 8.90133 1.34216 8.27133 1.53396C7.64133 1.72575 7.06498 2.06237 6.58842 2.51687C6.11185 2.97137 5.7483 3.53113 5.52687 4.15133C5.30545 4.77154 5.23229 5.43497 5.31326 6.08852C5.39423 6.74207 5.62707 7.3676 5.99316 7.91501C6.13707 8.13021 6.07928 8.42133 5.86409 8.56524C5.64889 8.70915 5.35777 8.65136 5.21386 8.43617C4.76642 7.7671 4.48183 7.00257 4.38287 6.20379C4.28391 5.405 4.37332 4.59414 4.64396 3.83611C4.91459 3.07808 5.35893 2.39394 5.9414 1.83844C6.52387 1.28294 7.2283 0.871514 7.9983 0.637097C8.7683 0.402681 9.58248 0.351783 10.3757 0.488477C11.1689 0.625171 11.9191 0.945662 12.5662 1.42429C13.2133 1.90293 13.7394 2.52641 14.1023 3.24483C14.4652 3.96325 14.655 4.75667 14.6562 5.56156L14.6562 5.56231C14.6562 8.39372 12.5884 10.2498 10.4375 10.2498C9.38695 10.2498 8.67309 9.90013 8.21748 9.52462C7.99306 9.33964 7.83667 9.15297 7.73456 9.0087C7.68345 8.93648 7.64563 8.87446 7.61942 8.82791C7.60629 8.80462 7.59604 8.78513 7.58844 8.7701C7.58463 8.76257 7.58149 8.75616 7.57898 8.75093L7.57569 8.74398L7.5744 8.74118L7.57383 8.73996L7.57357 8.73939C7.57345 8.73912 7.57333 8.73885 7.99999 8.54473L7.57333 8.73885C7.46612 8.50321 7.57023 8.22528 7.80587 8.11807C8.03997 8.01156 8.31582 8.11362 8.42454 8.34601C8.42467 8.34628 8.42486 8.34666 8.4251 8.34714C8.42666 8.35021 8.43032 8.35728 8.43624 8.3678C8.44811 8.38886 8.46888 8.42343 8.4998 8.46711C8.56176 8.55466 8.66318 8.67707 8.81376 8.80118C9.10815 9.04382 9.61304 9.31231 10.4375 9.31231C12.0366 9.31231 13.7186 7.91067 13.7187 5.56252C13.7176 4.90416 13.5624 4.2552 13.2655 3.66756C12.9686 3.07976 12.5382 2.56964 12.0087 2.17803C11.4792 1.78642 10.8655 1.5242 10.2165 1.41236Z" fill="white"/>
</g>
<defs>
<filter id="filter0_d_478_1024" x="0.34375" y="0.413574" width="18.3125" height="20.1804" filterUnits="userSpaceOnUse" color-interpolation-filters="sRGB">
<feFlood flood-opacity="0" result="BackgroundImageFix"/>
<feColorMatrix in="SourceAlpha" type="matrix" values="0 0 0 0 0 0 0 0 0 0 0 0 0 0 0 0 0 0 127 0" result="hardAlpha"/>
<feOffset dy="4"/>
<feGaussianBlur stdDeviation="2"/>
<feComposite in2="hardAlpha" operator="out"/>
<feColorMatrix type="matrix" values="0 0 0 0 0 0 0 0 0 0 0 0 0 0 0 0 0 0 0.25 0"/>
<feBlend mode="normal" in2="BackgroundImageFix" result="effect1_dropShadow_478_1024"/>
<feBlend mode="normal" in="SourceGraphic" in2="effect1_dropShadow_478_1024" result="shape"/>
</filter>
</defs>
</svg>
