<svg width="15" height="13" viewBox="0 0 15 13" fill="none" xmlns="http://www.w3.org/2000/svg">
<path d="M13.1606 3.48797C13.1664 3.61997 13.1664 3.74597 13.1664 3.87797C13.1722 7.87998 10.2319 12.5 4.85489 12.5C3.26899 12.5 1.71202 12.026 0.375 11.138C0.606519 11.168 0.838038 11.18 1.06956 11.18C2.38343 11.18 3.66257 10.724 4.69862 9.87799C3.44842 9.85399 2.3487 9.00799 1.96669 7.77198C2.40658 7.86198 2.85804 7.84399 3.28635 7.71798C1.92618 7.44198 0.94801 6.19998 0.942222 4.75398C0.942222 4.74198 0.942222 4.72998 0.942222 4.71798C1.34738 4.95198 1.80463 5.08398 2.26767 5.09598C0.988526 4.20797 0.589155 2.43797 1.36474 1.05196C2.85225 2.94797 5.04011 4.09397 7.39003 4.21997C7.15272 3.16997 7.47685 2.06597 8.23507 1.32196C9.41003 0.17596 11.2622 0.235961 12.3735 1.45396C13.0275 1.32196 13.6584 1.06996 14.2314 0.715962C14.0115 1.41796 13.5542 2.01197 12.9465 2.38997C13.5253 2.31797 14.0925 2.15597 14.625 1.91597C14.2314 2.52797 13.7337 3.05597 13.1606 3.48797Z" fill="white"/>
</svg>
