<svg width="15" height="11" viewBox="0 0 15 11" fill="none" xmlns="http://www.w3.org/2000/svg">
<path d="M13.7886 2.3374C13.7139 2.05914 13.5674 1.80538 13.3638 1.60152C13.1602 1.39766 12.9066 1.25085 12.6284 1.17578C11.6045 0.900391 7.5 0.900391 7.5 0.900391C7.5 0.900391 3.39551 0.900391 2.37158 1.17432C2.09329 1.24914 1.83959 1.39587 1.63595 1.59977C1.43231 1.80366 1.2859 2.05755 1.21143 2.33594C0.9375 3.36133 0.9375 5.5 0.9375 5.5C0.9375 5.5 0.9375 7.63867 1.21143 8.6626C1.3623 9.22803 1.80762 9.67334 2.37158 9.82422C3.39551 10.0996 7.5 10.0996 7.5 10.0996C7.5 10.0996 11.6045 10.0996 12.6284 9.82422C13.1938 9.67334 13.6377 9.22803 13.7886 8.6626C14.0625 7.63867 14.0625 5.5 14.0625 5.5C14.0625 5.5 14.0625 3.36133 13.7886 2.3374ZM6.19629 7.46289V3.53711L9.59473 5.48535L6.19629 7.46289Z" fill="white"/>
</svg>
